# xmcd
#
# Track frame offsets:
#	182
#	11345
#	27445
#	42395
#	84995
#	98045
#	116270
#	127445
#	141320
#	153695
#	163145
#	176795
#	189995
#	203345
#	215495
#	228320
#	241295
#	253070
#	264545
#	277820
#
# Disc length: 4150 seconds
#
# Revision: 0
# Processed by: cddbd v1.4PL0 Copyright (c) Steve Scherf et al.
# Submitted via: EasyCDDAExtractor 4.6.9.1
#
DISCID=17103414
DTITLE=Various Artist - Soul Classixs CD1
DYEAR=1900
DGENRE=Soul
TTITLE0=Save The Last Dance For Me
TTITLE1=Drift Away
TTITLE2=Rock Your Baby
TTITLE3=If There Were No Music
TTITLE4=My Guy
TTITLE5=Rainy Night In Georgia
TTITLE6=My Babe
TTITLE7=It's Gonna Work Out Fine
TTITLE8=He Will Break Your Heart
TTITLE9=Ain't No Sunshine
TTITLE10=Knock On Wood
TTITLE11=Spanish Harlem
TTITLE12=Patches
TTITLE13=You've Got That Magic Touch
TTITLE14=Harlem Shuffle
TTITLE15=When A Man Loves A Woman
TTITLE16=Hey Girl Don't Bother Me
TTITLE17=Working In A Coal Mine
TTITLE18=On Broadway
TTITLE19=Get Up Offa That Funk
EXTD=
EXTT0=
EXTT1=
EXTT2=
EXTT3=
EXTT4=
EXTT5=
EXTT6=
EXTT7=
EXTT8=
EXTT9=
EXTT10=
EXTT11=
EXTT12=
EXTT13=
EXTT14=
EXTT15=
EXTT16=
EXTT17=
EXTT18=
EXTT19=
PLAYORDER=
